<svg xmlns="http://www.w3.org/2000/svg" x="0px" y="0px"
width="64" height="64"
viewBox="0 0 172 172"
style=" fill:#000000;"><g fill="none" fill-rule="nonzero" stroke="none" stroke-width="1" stroke-linecap="butt" stroke-linejoin="miter" stroke-miterlimit="10" stroke-dasharray="" stroke-dashoffset="0" font-family="none" font-weight="none" font-size="none" text-anchor="none" style="mix-blend-mode: normal"><path d="M0,172v-172h172v172z" fill="none"></path><g fill="#ffffff"><path d="M58.62041,127.94694c-8.72384,0 -15.79592,7.07207 -15.79592,15.79592c0,8.72384 7.07207,15.79592 15.79592,15.79592c8.72384,0 15.79592,-7.07207 15.79592,-15.79592c0,-8.72384 -7.07207,-15.79592 -15.79592,-15.79592zM58.62041,152.51837c-4.84658,0 -8.77551,-3.92893 -8.77551,-8.77551c0,-4.84658 3.92893,-8.77551 8.77551,-8.77551c4.84658,0 8.77551,3.92893 8.77551,8.77551c0,4.84658 -3.92893,8.77551 -8.77551,8.77551zM125.31429,127.94694c-8.72384,0 -15.79592,7.07207 -15.79592,15.79592c0,8.72384 7.07207,15.79592 15.79592,15.79592c8.72384,0 15.79592,-7.07207 15.79592,-15.79592c0,-8.72384 -7.07207,-15.79592 -15.79592,-15.79592zM125.31429,152.51837c-4.84658,0 -8.77551,-3.92893 -8.77551,-8.77551c0,-4.84658 3.92893,-8.77551 8.77551,-8.77551c4.84658,0 8.77551,3.92893 8.77551,8.77551c0,4.84658 -3.92893,8.77551 -8.77551,8.77551zM158.13469,34.4l-114.25714,-1.57959l-3.15918,-9.65306c-2.22547,-6.45298 -8.2683,-10.80944 -15.09388,-10.88163h-11.75918c-1.93863,0 -3.5102,1.57157 -3.5102,3.5102c0,1.93863 1.57157,3.5102 3.5102,3.5102h11.75918c3.81652,0.08421 7.17741,2.53485 8.42449,6.14286l22.2898,67.22041l-1.7551,4.03673c-1.95734,5.04796 -1.36965,10.729 1.57959,15.26939c2.92083,4.45917 7.83506,7.21114 13.16327,7.37143h68.27347c1.93863,0 3.5102,-1.57157 3.5102,-3.5102c0,-1.93863 -1.57157,-3.5102 -3.5102,-3.5102h-68.27347c-3.00909,-0.07534 -5.77883,-1.65805 -7.37143,-4.21224c-1.57469,-2.52303 -1.89845,-5.63108 -0.87755,-8.42449l1.40408,-3.15918l73.8898,-7.72245c8.11628,-0.89387 14.79255,-6.7971 16.67347,-14.74286l8.42449,-35.27755c0.38007,-1.01631 0.17845,-2.15884 -0.52653,-2.98367c-0.73084,-0.79836 -1.73097,-1.29843 -2.80816,-1.40408zM146.2,72.48571c-1.13955,5.11483 -5.48226,8.88801 -10.70612,9.30204l-73.01224,7.54694l-16.32245,-49.49388l107.58776,1.57959z"></path></g></g></svg>